<?xml version="1.0" encoding="UTF-8"?>
<svg id="_레이어_1" data-name="레이어_1" xmlns="http://www.w3.org/2000/svg" version="1.1" viewBox="0 0 192.22 162.62">
  <!-- Generator: Adobe Illustrator 29.1.0, SVG Export Plug-In . SVG Version: 2.1.0 Build 142)  -->
  <defs>
    <style>
      .st0 {
        fill: #fff;
      }
    </style>
  </defs>
  <g>
    <polygon class="st0" points="254.8 -4.85 262.36 -4.85 262.36 3.23 279.13 3.23 279.13 -4.85 286.73 -4.85 286.73 16.76 279.13 16.76 279.13 8.49 262.36 8.49 262.36 16.76 254.8 16.76 254.8 -4.85"/>
    <path class="st0" d="M289.84,11.5h19.22c.96,0,1.69-.16,2.2-.49.51-.33.76-.79.76-1.38s-.26-1.05-.78-1.38c-.52-.33-1.25-.49-2.19-.49h-9.52c-3.14,0-5.55-.54-7.21-1.61-1.66-1.07-2.49-2.63-2.49-4.67s.83-3.61,2.49-4.7c1.66-1.09,4.07-1.64,7.21-1.64h20.46V.41h-19.39c-1.96,0-2.94.59-2.94,1.78,0,.53.25.95.76,1.26.51.31,1.23.46,2.17.46h9.52c3.16,0,5.58.55,7.24,1.65,1.66,1.1,2.49,2.69,2.49,4.78s-.83,3.67-2.49,4.78c-1.66,1.1-4.08,1.65-7.24,1.65h-20.3v-5.27Z"/>
    <path class="st0" d="M323.11-4.85h21.18c3.16,0,5.59.65,7.27,1.94,1.68,1.3,2.53,3.15,2.53,5.56s-.84,4.25-2.53,5.54c-1.68,1.28-4.11,1.93-7.27,1.93h-13.62v6.64h-7.56V-4.85ZM342.86,5.28c1.12,0,1.98-.23,2.59-.69.6-.46.9-1.11.9-1.94s-.3-1.48-.9-1.94c-.6-.46-1.46-.69-2.59-.69h-12.18v5.27h12.18Z"/>
    <path class="st0" d="M362.95-4.85h11.54l12.7,21.61h-8.02l-2.14-3.73h-16.93l-2.14,3.73h-7.71l12.7-21.61ZM374.49,8.34l-4.75-8.14h-2.36l-4.74,8.14h11.85Z"/>
    <path class="st0" d="M401.41.41c-2.47,0-4.37.47-5.69,1.41-1.33.94-1.99,2.32-1.99,4.13s.66,3.17,1.99,4.12c1.33.95,3.22,1.42,5.69,1.42h16.19v5.27h-16.87c-4.8,0-8.47-.93-11.02-2.79-2.55-1.86-3.83-4.53-3.83-8.02s1.27-6.16,3.83-8.02c2.55-1.86,6.22-2.79,11.02-2.79h16.87V.41h-16.19Z"/>
    <path class="st0" d="M420.75-4.85h28.62V.02h-21.34v3.73h21.03v4.13h-21.03v1.29c0,.98.3,1.68.9,2.1.6.42,1.59.63,2.95.63h17.48v4.87h-19.38c-3.27,0-5.62-.59-7.07-1.76-1.45-1.17-2.17-3.1-2.17-5.77V-4.85Z"/>
  </g>
  <g>
    <g>
      <polygon class="st0" points="171.2 251.8 199.58 251.8 199.58 282.13 262.52 282.13 262.52 251.8 291.01 251.8 291.01 332.9 262.52 332.9 262.52 301.88 199.58 301.88 199.58 332.9 171.2 332.9 171.2 251.8"/>
      <path class="st0" d="M302.69,313.14h72.13c3.6,0,6.36-.61,8.27-1.84,1.91-1.22,2.87-2.95,2.87-5.17s-.97-3.94-2.93-5.17c-1.95-1.23-4.69-1.84-8.21-1.84h-35.72c-11.8,0-20.81-2.01-27.05-6.03-6.24-4.02-9.36-9.86-9.36-17.52s3.12-13.53,9.36-17.63c6.24-4.1,15.26-6.15,27.05-6.15h76.78v19.76h-72.76c-7.35,0-11.03,2.22-11.03,6.66,0,1.99.96,3.56,2.87,4.71,1.92,1.15,4.63,1.72,8.16,1.72h35.73c11.87,0,20.92,2.07,27.17,6.2,6.24,4.14,9.36,10.11,9.36,17.92s-3.12,13.78-9.36,17.92c-6.24,4.14-15.3,6.2-27.17,6.2h-76.16v-19.76Z"/>
      <path class="st0" d="M427.55,251.8h79.48c11.87,0,20.96,2.43,27.28,7.29,6.32,4.86,9.48,11.81,9.48,20.85s-3.16,15.97-9.48,20.79c-6.32,4.82-15.41,7.23-27.28,7.23h-51.11v24.93h-28.37v-81.1ZM501.64,289.82c4.21,0,7.44-.86,9.7-2.58,2.26-1.73,3.39-4.16,3.39-7.29s-1.13-5.57-3.39-7.29c-2.26-1.72-5.5-2.59-9.7-2.59h-45.72v19.76h45.72Z"/>
      <path class="st0" d="M577.01,251.8h43.3l47.67,81.09h-30.1l-8.04-14.01h-63.52l-8.04,14.01h-28.95l47.67-81.09ZM620.31,301.31l-17.81-30.55h-8.84l-17.8,30.55h44.45Z"/>
      <path class="st0" d="M721.35,271.56c-9.27,0-16.38,1.76-21.37,5.28-4.98,3.52-7.47,8.69-7.47,15.51s2.49,11.89,7.47,15.45c4.98,3.56,12.1,5.34,21.37,5.34h60.76v19.76h-63.29c-18,0-31.78-3.49-41.35-10.45-9.57-6.97-14.35-17-14.35-30.1s4.78-23.12,14.35-30.09c9.57-6.97,23.36-10.45,41.35-10.45h63.29v19.76h-60.76Z"/>
      <path class="st0" d="M793.92,251.8h107.4v18.26h-80.06v14.01h78.91v15.51h-78.91v4.82c0,3.67,1.13,6.3,3.38,7.87,2.26,1.57,5.95,2.36,11.09,2.36h65.59v18.26h-72.71c-12.25,0-21.1-2.2-26.54-6.6-5.44-4.41-8.15-11.62-8.15-21.65v-52.84Z"/>
    </g>
    <path class="st0" d="M142.43,305.84c0-12.29-5.83-24-15.63-31.42v-29.74s0-.05,0-.07c.02-1.24.09-2.49.23-3.7v-.08c.16-1.39.39-2.76.67-4.08l2.15-9.87h-31.21l2.51,9.38c.35,1.54.61,3.1.78,4.62,0,.03.3,2.6.3,4.63v20.94h-.13s0,0,0,0c-1.01.02-2.05.09-3.09.19-.17.02-.33.03-.47.06-2.04.25-4.18.68-6.39,1.27l-.05.02c-2.14.58-4.32,1.3-6.47,2.14-2.14.84-4.33,1.83-6.49,2.94-3.16,1.62-6.36,3.54-9.5,5.7-4.84,3.34-8.43,5.75-11.3,7.61-3.39,2.19-5.98,3.73-8.17,4.86l-.07.04h0c-2.63,1.53-5.5,2.51-8.51,2.9h-.12l-.05.02c-.93.11-1.87.17-2.8.17-7.42,0-14.42-3.61-18.73-9.67l-1.61-2.26c-1.84-3.35-2.8-7.1-2.8-11,0-3.67.86-7.24,2.52-10.47l1.42-2.2c.15-.23.31-.46.47-.68l.18-.25v-.17c.39-.46.82-.93,1.29-1.44l.02-.02c.65-.74,1.36-1.45,2.1-2.1l.02-.02c5.22-4.88,11.59-8.52,18.41-10.51,2.14-.63,4.35-1.11,6.57-1.41,1.85-.26,4.15-.58,6.38-.58h33.58l-17.33-14.72H15.08l2.13,9.37c.35,1.53.61,3.08.78,4.63.06.53.1,1.01.13,1.47v4.96c-10.07,7.41-16.07,19.24-16.07,31.75s6,24.34,16.07,31.75v29.09c0,1.44-.08,2.88-.24,4.29-.15,1.37-.37,2.72-.66,4.04l-2.14,9.86h30.65l-2.13-9.36c-.34-1.5-.6-3.03-.77-4.54-.18-1.53-.26-3.09-.26-4.66v-21.09c1.64-.04,3.28-.19,4.89-.44h.04c.14-.03.27-.05.4-.07.28-.05.57-.1.86-.16.12-.02.25-.05.37-.07l.17-.03s.05,0,.06-.01c.22-.04.44-.09.65-.14h.31s.08-.09.08-.09c.04,0,.08-.02.11-.03.14-.03.28-.06.42-.1l.09-.02c.09-.02.18-.04.27-.07h0s.24-.06.24-.06c0,0,0,0,.01,0h.02s.01-.01.02-.01l.07-.02c2.46-.62,5-1.45,7.54-2.46,2.02-.8,4.09-1.75,6.17-2.81,3.18-1.63,6.37-3.55,9.49-5.7,4.97-3.43,8.66-5.91,11.62-7.81,8.38-5.39,11.96-6.82,16.1-7.52l.73-.09c.96-.12,1.94-.18,2.91-.18,7.49,0,14.54,3.67,18.84,9.83,2.7,3.86,4.13,8.41,4.13,13.14s-1.43,9.27-4.12,13.13l-1.2,1.58c-.81.97-1.7,1.87-2.65,2.69l-.03.03c-5.18,4.85-11.49,8.48-18.27,10.5-2.05.61-4.18,1.08-6.31,1.4-2.24.33-4.53.5-6.82.5h-33.08l17.7,14.75h55.56l-2.13-9.36c-.34-1.5-.6-3.03-.77-4.54-.18-1.53-.26-3.09-.26-4.66v-2.25c9.8-7.42,15.63-19.13,15.63-31.42Z"/>
  </g>
  <path class="st0" d="M574.44,29.36l-1.35,2.09c-1.57,3.07-2.4,6.47-2.4,9.96,0,3.7.91,7.27,2.66,10.47l1.53,2.15c4.1,5.76,10.76,9.2,17.83,9.2.88,0,1.78-.05,2.66-.16l.05-.02h.11c2.87-.37,5.6-1.3,8.1-2.75h0s.07-.04.07-.04c2.08-1.07,4.55-2.54,7.78-4.62,2.73-1.76,6.15-4.07,10.76-7.24,2.99-2.06,6.03-3.89,9.04-5.43,2.06-1.06,4.14-2,6.18-2.8,2.05-.81,4.12-1.49,6.16-2.04h.05c2.11-.57,4.15-1.28,6.09-1.52.13-.02.29-.04.45-.05,1-.1,1.98-.16,2.95-.18h0s.13,0,.13,0v-19.63c0-1.94-.28-4.39-.28-4.41-.16-1.45-.41-2.93-.74-4.4l-2.39-8.93h29.71l-2.05,9.4c-.27,1.25-.48,2.55-.63,3.88v.08c-.14,1.16-.21,2.34-.22,3.52,0,.02,0,.05,0,.07v.38s0,27.63,0,27.63c9.33,7.07,14.88,18.52,14.88,30.22s-5.55,22.85-14.88,29.91v2.14c0,1.49.08,2.98.25,4.43.16,1.44.41,2.89.74,4.32l2.03,8.91h-52.89l-16.84-14.04h31.49c2.17,0,4.36-.16,6.49-.48,2.03-.3,4.05-.75,6.01-1.33,6.45-1.92,12.46-5.38,17.39-10l.03-.03c.91-.78,1.76-1.64,2.52-2.56l1.15-1.5c2.57-3.68,3.92-8,3.92-12.5s-1.36-8.83-3.94-12.51c-4.09-5.86-10.8-9.35-17.93-9.35-.93,0-1.86.06-2.77.17l-.7.09c-3.94.67-7.35,2.03-15.32,7.16-2.81,1.81-6.33,4.17-11.06,7.44-2.97,2.05-6.01,3.88-9.04,5.43-1.98,1.01-3.95,1.91-5.87,2.68-2.42.97-4.83,1.76-7.18,2.34l-.07.02s-.01,0-.02,0h-.02s0,0-.01,0l-.23.06h0c-.09.02-.17.04-.26.06l-.09.02c-.14.03-.27.06-.4.09-.03,0-.07.02-.11.02l-.08.08h-.29c-.21.05-.41.09-.62.13,0,0-.03,0-.06.01l-.16.03c-.12.02-.23.05-.35.07-.27.05-.55.1-.82.15-.12.02-.25.04-.38.06h-.04c-1.53.24-3.09.38-4.65.42v20.08c0,1.49.08,2.98.25,4.43.16,1.44.41,2.89.74,4.32l2.03,8.91h-29.18l2.04-9.39c.27-1.25.48-2.54.63-3.84.15-1.34.23-2.72.23-4.09v-27.69c-9.58-7.06-15.29-18.32-15.29-30.22s5.71-23.17,15.29-30.22v-4.72c-.03-.44-.07-.9-.13-1.4-.16-1.47-.41-2.96-.74-4.41l-2.03-8.92h53.32l16.5,14.01h-31.97c-2.12,0-4.31.31-6.07.55-2.12.29-4.22.74-6.25,1.34-6.49,1.9-12.55,5.36-17.53,10.01l-.02.02c-.71.62-1.38,1.29-2,1.99,0,0-.7.75-1.87,2.44Z"/>
  <g>
    <polygon class="st0" points="0 141.27 7.47 141.27 7.47 149.25 24.04 149.25 24.04 141.27 31.54 141.27 31.54 162.62 24.04 162.62 24.04 154.46 7.47 154.46 7.47 162.62 0 162.62 0 141.27"/>
    <path class="st0" d="M34.62,157.42h18.99c.95,0,1.67-.16,2.18-.48.5-.32.76-.78.76-1.36s-.26-1.04-.77-1.36c-.51-.32-1.23-.48-2.16-.48h-9.4c-3.11,0-5.48-.53-7.12-1.59-1.64-1.06-2.46-2.59-2.46-4.61s.82-3.56,2.46-4.64c1.64-1.08,4.02-1.62,7.12-1.62h20.21v5.2h-19.16c-1.94,0-2.9.58-2.9,1.75,0,.52.25.94.76,1.24.5.3,1.22.45,2.15.45h9.41c3.12,0,5.51.54,7.15,1.63,1.64,1.09,2.46,2.66,2.46,4.72s-.82,3.63-2.46,4.72c-1.64,1.09-4.03,1.63-7.15,1.63h-20.05v-5.2Z"/>
    <path class="st0" d="M67.49,141.27h20.93c3.13,0,5.52.64,7.18,1.92,1.66,1.28,2.5,3.11,2.5,5.49s-.83,4.2-2.5,5.47c-1.66,1.27-4.06,1.9-7.18,1.9h-13.46v6.56h-7.47v-21.35ZM86.99,151.28c1.11,0,1.96-.23,2.55-.68.59-.45.89-1.09.89-1.92s-.3-1.47-.89-1.92c-.59-.45-1.45-.68-2.55-.68h-12.04v5.2h12.04Z"/>
    <path class="st0" d="M106.84,141.27h11.4l12.55,21.35h-7.92l-2.12-3.69h-16.72l-2.12,3.69h-7.62l12.55-21.35ZM118.24,154.3l-4.69-8.04h-2.33l-4.69,8.04h11.7Z"/>
    <path class="st0" d="M144.83,146.47c-2.44,0-4.31.46-5.62,1.39-1.31.93-1.97,2.29-1.97,4.08s.66,3.13,1.97,4.07c1.31.94,3.19,1.41,5.62,1.41h16v5.2h-16.66c-4.74,0-8.37-.92-10.89-2.75-2.52-1.84-3.78-4.48-3.78-7.92s1.26-6.09,3.78-7.92c2.52-1.83,6.15-2.75,10.89-2.75h16.66v5.2h-16Z"/>
    <path class="st0" d="M163.94,141.27h28.27v4.81h-21.08v3.69h20.77v4.08h-20.77v1.27c0,.97.3,1.66.89,2.07.59.41,1.57.62,2.92.62h17.27v4.81h-19.14c-3.23,0-5.56-.58-6.99-1.74-1.43-1.16-2.15-3.06-2.15-5.7v-13.91Z"/>
  </g>
  <path class="st0" d="M47.87,29.12l-1.3,2.01c-1.51,2.94-2.3,6.2-2.3,9.55,0,3.55.88,6.97,2.55,10.04l1.47,2.06c3.93,5.52,10.32,8.82,17.09,8.82.85,0,1.71-.05,2.55-.16l.05-.02h.11c2.75-.36,5.37-1.24,7.77-2.64h0s.07-.04.07-.04c2-1.03,4.37-2.44,7.46-4.43,2.62-1.69,5.9-3.9,10.32-6.94,2.86-1.98,5.78-3.73,8.67-5.21,1.98-1.01,3.97-1.92,5.92-2.68,1.96-.77,3.95-1.43,5.9-1.96h.05c2.02-.55,3.98-1.23,5.84-1.46.13-.02.28-.04.43-.05.96-.1,1.9-.15,2.83-.17h0s.12,0,.12,0v-18.83c0-1.86-.27-4.21-.27-4.23-.15-1.39-.39-2.81-.71-4.22l-2.29-8.57h28.49l-1.97,9.01c-.26,1.2-.46,2.45-.61,3.72v.08c-.13,1.11-.2,2.25-.22,3.38,0,.02,0,.05,0,.07v.36s0,26.5,0,26.5c8.94,6.78,14.27,17.76,14.27,28.98s-5.33,21.91-14.27,28.68v2.06c0,1.43.08,2.86.24,4.25.15,1.38.39,2.77.71,4.15l1.94,8.55h-50.72l-16.15-13.46h30.2c2.09,0,4.18-.15,6.22-.46,1.95-.29,3.88-.72,5.76-1.27,6.18-1.84,11.95-5.16,16.67-9.58l.03-.02c.87-.75,1.68-1.58,2.42-2.46l1.1-1.44c2.46-3.52,3.76-7.67,3.76-11.98s-1.3-8.47-3.77-12c-3.92-5.62-10.35-8.97-17.19-8.97-.89,0-1.78.06-2.66.17l-.67.08c-3.77.64-7.05,1.95-14.69,6.87-2.7,1.73-6.07,4-10.61,7.13-2.85,1.97-5.76,3.72-8.66,5.21-1.9.97-3.79,1.83-5.63,2.57-2.32.93-4.64,1.68-6.88,2.25l-.06.02s-.01,0-.02,0h-.02s0,0-.01,0l-.22.06h0c-.08.02-.16.04-.24.06l-.08.02c-.13.03-.26.06-.39.09-.03,0-.07.02-.1.02l-.07.08h-.28c-.2.05-.4.09-.6.13,0,0-.03,0-.05.01l-.15.03c-.11.02-.23.05-.34.06-.26.05-.53.1-.78.14-.12.02-.24.04-.37.06h-.03c-1.47.23-2.96.36-4.46.4v19.25c0,1.43.08,2.86.24,4.25.15,1.38.39,2.77.71,4.15l1.94,8.55h-27.98l1.95-9c.26-1.2.46-2.44.6-3.68.14-1.29.22-2.61.22-3.92v-26.56c-9.19-6.77-14.66-17.57-14.66-28.98s5.47-22.21,14.66-28.98v-4.53c-.03-.42-.07-.86-.12-1.34-.16-1.41-.4-2.83-.71-4.23l-1.95-8.56h51.13l15.82,13.44h-30.66c-2.04,0-4.13.29-5.82.53-2.03.28-4.05.71-6,1.29-6.23,1.82-12.04,5.14-16.81,9.6l-.02.02c-.68.59-1.32,1.23-1.91,1.91,0,0-.67.72-1.79,2.34Z"/>
  <g>
    <polygon points="254.8 -545.71 262.36 -545.71 262.36 -537.63 279.13 -537.63 279.13 -545.71 286.73 -545.71 286.73 -524.1 279.13 -524.1 279.13 -532.36 262.36 -532.36 262.36 -524.1 254.8 -524.1 254.8 -545.71"/>
    <path d="M289.84-529.36h19.22c.96,0,1.69-.16,2.2-.49.51-.33.76-.79.76-1.38s-.26-1.05-.78-1.38c-.52-.33-1.25-.49-2.19-.49h-9.52c-3.14,0-5.55-.54-7.21-1.61-1.66-1.07-2.49-2.63-2.49-4.67s.83-3.61,2.49-4.7c1.66-1.09,4.07-1.64,7.21-1.64h20.46v5.27h-19.39c-1.96,0-2.94.59-2.94,1.78,0,.53.25.95.76,1.26.51.31,1.23.46,2.17.46h9.52c3.16,0,5.58.55,7.24,1.65,1.66,1.1,2.49,2.69,2.49,4.78s-.83,3.67-2.49,4.78c-1.66,1.1-4.08,1.65-7.24,1.65h-20.3v-5.27Z"/>
    <path d="M323.11-545.71h21.18c3.16,0,5.59.65,7.27,1.94,1.68,1.3,2.53,3.15,2.53,5.56s-.84,4.25-2.53,5.54c-1.68,1.28-4.11,1.93-7.27,1.93h-13.62v6.64h-7.56v-21.61ZM342.86-535.58c1.12,0,1.98-.23,2.59-.69.6-.46.9-1.11.9-1.94s-.3-1.48-.9-1.94c-.6-.46-1.46-.69-2.59-.69h-12.18v5.27h12.18Z"/>
    <path d="M362.95-545.71h11.54l12.7,21.61h-8.02l-2.14-3.73h-16.93l-2.14,3.73h-7.71l12.7-21.61ZM374.49-532.52l-4.75-8.14h-2.36l-4.74,8.14h11.85Z"/>
    <path d="M401.41-540.44c-2.47,0-4.37.47-5.69,1.41-1.33.94-1.99,2.32-1.99,4.13s.66,3.17,1.99,4.12c1.33.95,3.22,1.42,5.69,1.42h16.19v5.27h-16.87c-4.8,0-8.47-.93-11.02-2.79-2.55-1.86-3.83-4.53-3.83-8.02s1.27-6.16,3.83-8.02c2.55-1.86,6.22-2.79,11.02-2.79h16.87v5.27h-16.19Z"/>
    <path d="M420.75-545.71h28.62v4.87h-21.34v3.73h21.03v4.13h-21.03v1.29c0,.98.3,1.68.9,2.1.6.42,1.59.63,2.95.63h17.48v4.87h-19.38c-3.27,0-5.62-.59-7.07-1.76-1.45-1.17-2.17-3.1-2.17-5.77v-14.08Z"/>
  </g>
  <g>
    <g>
      <polygon points="171.2 -289.05 199.58 -289.05 199.58 -258.73 262.52 -258.73 262.52 -289.05 291.01 -289.05 291.01 -207.96 262.52 -207.96 262.52 -238.97 199.58 -238.97 199.58 -207.96 171.2 -207.96 171.2 -289.05"/>
      <path d="M302.69-227.72h72.13c3.6,0,6.36-.61,8.27-1.84,1.91-1.22,2.87-2.95,2.87-5.17s-.97-3.94-2.93-5.17c-1.95-1.23-4.69-1.84-8.21-1.84h-35.72c-11.8,0-20.81-2.01-27.05-6.03-6.24-4.02-9.36-9.86-9.36-17.52s3.12-13.53,9.36-17.63c6.24-4.1,15.26-6.15,27.05-6.15h76.78v19.76h-72.76c-7.35,0-11.03,2.22-11.03,6.66,0,1.99.96,3.56,2.87,4.71,1.92,1.15,4.63,1.72,8.16,1.72h35.73c11.87,0,20.92,2.07,27.17,6.2,6.24,4.14,9.36,10.11,9.36,17.92s-3.12,13.78-9.36,17.92c-6.24,4.14-15.3,6.2-27.17,6.2h-76.16v-19.76Z"/>
      <path d="M427.55-289.05h79.48c11.87,0,20.96,2.43,27.28,7.29,6.32,4.86,9.48,11.81,9.48,20.85s-3.16,15.97-9.48,20.79c-6.32,4.82-15.41,7.23-27.28,7.23h-51.11v24.93h-28.37v-81.1ZM501.64-251.04c4.21,0,7.44-.86,9.7-2.58,2.26-1.73,3.39-4.16,3.39-7.29s-1.13-5.57-3.39-7.29c-2.26-1.72-5.5-2.59-9.7-2.59h-45.72v19.76h45.72Z"/>
      <path d="M577.01-289.05h43.3l47.67,81.09h-30.1l-8.04-14.01h-63.52l-8.04,14.01h-28.95l47.67-81.09ZM620.31-239.55l-17.81-30.55h-8.84l-17.8,30.55h44.45Z"/>
      <path d="M721.35-269.3c-9.27,0-16.38,1.76-21.37,5.28-4.98,3.52-7.47,8.69-7.47,15.51s2.49,11.89,7.47,15.45c4.98,3.56,12.1,5.34,21.37,5.34h60.76v19.76h-63.29c-18,0-31.78-3.49-41.35-10.45-9.57-6.97-14.35-17-14.35-30.1s4.78-23.12,14.35-30.09c9.57-6.97,23.36-10.45,41.35-10.45h63.29v19.76h-60.76Z"/>
      <path d="M793.92-289.05h107.4v18.26h-80.06v14.01h78.91v15.51h-78.91v4.82c0,3.67,1.13,6.3,3.38,7.87,2.26,1.57,5.95,2.36,11.09,2.36h65.59v18.26h-72.71c-12.25,0-21.1-2.2-26.54-6.6-5.44-4.41-8.15-11.62-8.15-21.65v-52.84Z"/>
    </g>
    <path d="M142.43-235.02c0-12.29-5.83-24-15.63-31.42v-29.74s0-.05,0-.07c.02-1.24.09-2.49.23-3.7v-.08c.16-1.39.39-2.76.67-4.08l2.15-9.87h-31.21l2.51,9.38c.35,1.54.61,3.1.78,4.62,0,.03.3,2.6.3,4.63v20.94h-.13s0,0,0,0c-1.01.02-2.05.09-3.09.19-.17.02-.33.03-.47.06-2.04.25-4.18.68-6.39,1.27l-.05.02c-2.14.58-4.32,1.3-6.47,2.14-2.14.84-4.33,1.83-6.49,2.94-3.16,1.62-6.36,3.54-9.5,5.7-4.84,3.34-8.43,5.75-11.3,7.61-3.39,2.19-5.98,3.73-8.17,4.86l-.07.04h0c-2.63,1.53-5.5,2.51-8.51,2.9h-.12l-.05.02c-.93.11-1.87.17-2.8.17-7.42,0-14.42-3.61-18.73-9.67l-1.61-2.26c-1.84-3.35-2.8-7.1-2.8-11,0-3.67.86-7.24,2.52-10.47l1.42-2.2c.15-.23.31-.46.47-.68l.18-.25v-.17c.39-.46.82-.93,1.29-1.44l.02-.02c.65-.74,1.36-1.45,2.1-2.1l.02-.02c5.22-4.88,11.59-8.52,18.41-10.51,2.14-.63,4.35-1.11,6.57-1.41,1.85-.26,4.15-.58,6.38-.58h33.58l-17.33-14.72H15.08l2.13,9.37c.35,1.53.61,3.08.78,4.63.06.53.1,1.01.13,1.47v4.96c-10.07,7.41-16.07,19.24-16.07,31.75s6,24.34,16.07,31.75v29.09c0,1.44-.08,2.88-.24,4.29-.15,1.37-.37,2.72-.66,4.04l-2.14,9.86h30.65l-2.13-9.36c-.34-1.5-.6-3.03-.77-4.54-.18-1.53-.26-3.09-.26-4.66v-21.09c1.64-.04,3.28-.19,4.89-.44h.04c.14-.03.27-.05.4-.07.28-.05.57-.1.86-.16.12-.02.25-.05.37-.07l.17-.03s.05,0,.06-.01c.22-.04.44-.09.65-.14h.31s.08-.09.08-.09c.04,0,.08-.02.11-.03.14-.03.28-.06.42-.1l.09-.02c.09-.02.18-.04.27-.07h0s.24-.06.24-.06c0,0,0,0,.01,0h.02s.01-.01.02-.01l.07-.02c2.46-.62,5-1.45,7.54-2.46,2.02-.8,4.09-1.75,6.17-2.81,3.18-1.63,6.37-3.55,9.49-5.7,4.97-3.43,8.66-5.91,11.62-7.81,8.38-5.39,11.96-6.82,16.1-7.52l.73-.09c.96-.12,1.94-.18,2.91-.18,7.49,0,14.54,3.67,18.84,9.83,2.7,3.86,4.13,8.41,4.13,13.14s-1.43,9.27-4.12,13.13l-1.2,1.58c-.81.97-1.7,1.87-2.65,2.69l-.03.03c-5.18,4.85-11.49,8.48-18.27,10.5-2.05.61-4.18,1.08-6.31,1.4-2.24.33-4.53.5-6.82.5h-33.08l17.7,14.75h55.56l-2.13-9.36c-.34-1.5-.6-3.03-.77-4.54-.18-1.53-.26-3.09-.26-4.66v-2.25c9.8-7.42,15.63-19.13,15.63-31.42Z"/>
  </g>
  <path d="M574.44-511.5l-1.35,2.09c-1.57,3.07-2.4,6.47-2.4,9.96,0,3.7.91,7.27,2.66,10.47l1.53,2.15c4.1,5.76,10.76,9.2,17.83,9.2.88,0,1.78-.05,2.66-.16l.05-.02h.11c2.87-.37,5.6-1.3,8.1-2.75h0s.07-.04.07-.04c2.08-1.07,4.55-2.54,7.78-4.62,2.73-1.76,6.15-4.07,10.76-7.24,2.99-2.06,6.03-3.89,9.04-5.43,2.06-1.06,4.14-2,6.18-2.8,2.05-.81,4.12-1.49,6.16-2.04h.05c2.11-.57,4.15-1.28,6.09-1.52.13-.02.29-.04.45-.05,1-.1,1.98-.16,2.95-.18h0s.13,0,.13,0v-19.63c0-1.94-.28-4.39-.28-4.41-.16-1.45-.41-2.93-.74-4.4l-2.39-8.93h29.71l-2.05,9.4c-.27,1.25-.48,2.55-.63,3.88v.08c-.14,1.16-.21,2.34-.22,3.52,0,.02,0,.05,0,.07v.38s0,27.63,0,27.63c9.33,7.07,14.88,18.52,14.88,30.22s-5.55,22.85-14.88,29.91v2.14c0,1.49.08,2.98.25,4.43.16,1.44.41,2.89.74,4.32l2.03,8.91h-52.89l-16.84-14.04h31.49c2.17,0,4.36-.16,6.49-.48,2.03-.3,4.05-.75,6.01-1.33,6.45-1.92,12.46-5.38,17.39-10l.03-.03c.91-.78,1.76-1.64,2.52-2.56l1.15-1.5c2.57-3.68,3.92-8,3.92-12.5s-1.36-8.83-3.94-12.51c-4.09-5.86-10.8-9.35-17.93-9.35-.93,0-1.86.06-2.77.17l-.7.09c-3.94.67-7.35,2.03-15.32,7.16-2.81,1.81-6.33,4.17-11.06,7.44-2.97,2.05-6.01,3.88-9.04,5.43-1.98,1.01-3.95,1.91-5.87,2.68-2.42.97-4.83,1.76-7.18,2.34l-.07.02s-.01,0-.02,0h-.02s0,0-.01,0l-.23.06h0c-.09.02-.17.04-.26.06l-.09.02c-.14.03-.27.06-.4.09-.03,0-.07.02-.11.02l-.08.08h-.29c-.21.05-.41.09-.62.13,0,0-.03,0-.06.01l-.16.03c-.12.02-.23.05-.35.07-.27.05-.55.1-.82.15-.12.02-.25.04-.38.06h-.04c-1.53.24-3.09.38-4.65.42v20.08c0,1.49.08,2.98.25,4.43.16,1.44.41,2.89.74,4.32l2.03,8.91h-29.18l2.04-9.39c.27-1.25.48-2.54.63-3.84.15-1.34.23-2.72.23-4.09v-27.69c-9.58-7.06-15.29-18.32-15.29-30.22s5.71-23.17,15.29-30.22v-4.72c-.03-.44-.07-.9-.13-1.4-.16-1.47-.41-2.96-.74-4.41l-2.03-8.92h53.32l16.5,14.01h-31.97c-2.12,0-4.31.31-6.07.55-2.12.29-4.22.74-6.25,1.34-6.49,1.9-12.55,5.36-17.53,10.01l-.02.02c-.71.62-1.38,1.29-2,1.99,0,0-.7.75-1.87,2.44Z"/>
  <g>
    <polygon points="0 -399.59 7.47 -399.59 7.47 -391.6 24.04 -391.6 24.04 -399.59 31.54 -399.59 31.54 -378.24 24.04 -378.24 24.04 -386.4 7.47 -386.4 7.47 -378.24 0 -378.24 0 -399.59"/>
    <path d="M34.62-383.44h18.99c.95,0,1.67-.16,2.18-.48.5-.32.76-.78.76-1.36s-.26-1.04-.77-1.36c-.51-.32-1.23-.48-2.16-.48h-9.4c-3.11,0-5.48-.53-7.12-1.59-1.64-1.06-2.46-2.59-2.46-4.61s.82-3.56,2.46-4.64c1.64-1.08,4.02-1.62,7.12-1.62h20.21v5.2h-19.16c-1.94,0-2.9.58-2.9,1.75,0,.52.25.94.76,1.24.5.3,1.22.45,2.15.45h9.41c3.12,0,5.51.54,7.15,1.63,1.64,1.09,2.46,2.66,2.46,4.72s-.82,3.63-2.46,4.72c-1.64,1.09-4.03,1.63-7.15,1.63h-20.05v-5.2Z"/>
    <path d="M67.49-399.59h20.93c3.13,0,5.52.64,7.18,1.92,1.66,1.28,2.5,3.11,2.5,5.49s-.83,4.2-2.5,5.47c-1.66,1.27-4.06,1.9-7.18,1.9h-13.46v6.56h-7.47v-21.35ZM86.99-389.58c1.11,0,1.96-.23,2.55-.68.59-.45.89-1.09.89-1.92s-.3-1.47-.89-1.92c-.59-.45-1.45-.68-2.55-.68h-12.04v5.2h12.04Z"/>
    <path d="M106.84-399.59h11.4l12.55,21.35h-7.92l-2.12-3.69h-16.72l-2.12,3.69h-7.62l12.55-21.35ZM118.24-386.55l-4.69-8.04h-2.33l-4.69,8.04h11.7Z"/>
    <path d="M144.83-394.39c-2.44,0-4.31.46-5.62,1.39-1.31.93-1.97,2.29-1.97,4.08s.66,3.13,1.97,4.07c1.31.94,3.19,1.41,5.62,1.41h16v5.2h-16.66c-4.74,0-8.37-.92-10.89-2.75-2.52-1.84-3.78-4.48-3.78-7.92s1.26-6.09,3.78-7.92c2.52-1.83,6.15-2.75,10.89-2.75h16.66v5.2h-16Z"/>
    <path d="M163.94-399.59h28.27v4.81h-21.08v3.69h20.77v4.08h-20.77v1.27c0,.97.3,1.66.89,2.07.59.41,1.57.62,2.92.62h17.27v4.81h-19.14c-3.23,0-5.56-.58-6.99-1.74-1.43-1.16-2.15-3.06-2.15-5.7v-13.91Z"/>
  </g>
  <path d="M47.87-511.73l-1.3,2.01c-1.51,2.94-2.3,6.2-2.3,9.55,0,3.55.88,6.97,2.55,10.04l1.47,2.06c3.93,5.52,10.32,8.82,17.09,8.82.85,0,1.71-.05,2.55-.16l.05-.02h.11c2.75-.36,5.37-1.24,7.77-2.64h0s.07-.04.07-.04c2-1.03,4.37-2.44,7.46-4.43,2.62-1.69,5.9-3.9,10.32-6.94,2.86-1.98,5.78-3.73,8.67-5.21,1.98-1.01,3.97-1.92,5.92-2.68,1.96-.77,3.95-1.43,5.9-1.96h.05c2.02-.55,3.98-1.23,5.84-1.46.13-.02.28-.04.43-.05.96-.1,1.9-.15,2.83-.17h0s.12,0,.12,0v-18.83c0-1.86-.27-4.21-.27-4.23-.15-1.39-.39-2.81-.71-4.22l-2.29-8.57h28.49l-1.97,9.01c-.26,1.2-.46,2.45-.61,3.72v.08c-.13,1.11-.2,2.25-.22,3.38,0,.02,0,.05,0,.07v.36s0,26.5,0,26.5c8.94,6.78,14.27,17.76,14.27,28.98s-5.33,21.91-14.27,28.68v2.06c0,1.43.08,2.86.24,4.25.15,1.38.39,2.77.71,4.15l1.94,8.55h-50.72l-16.15-13.46h30.2c2.09,0,4.18-.15,6.22-.46,1.95-.29,3.88-.72,5.76-1.27,6.18-1.84,11.95-5.16,16.67-9.58l.03-.02c.87-.75,1.68-1.58,2.42-2.46l1.1-1.44c2.46-3.52,3.76-7.67,3.76-11.98s-1.3-8.47-3.77-12c-3.92-5.62-10.35-8.97-17.19-8.97-.89,0-1.78.06-2.66.17l-.67.08c-3.77.64-7.05,1.95-14.69,6.87-2.7,1.73-6.07,4-10.61,7.13-2.85,1.97-5.76,3.72-8.66,5.21-1.9.97-3.79,1.83-5.63,2.57-2.32.93-4.64,1.68-6.88,2.25l-.06.02s-.01,0-.02,0h-.02s0,0-.01,0l-.22.06h0c-.08.02-.16.04-.24.06l-.08.02c-.13.03-.26.06-.39.09-.03,0-.07.02-.1.02l-.07.08h-.28c-.2.05-.4.09-.6.13,0,0-.03,0-.05.01l-.15.03c-.11.02-.23.05-.34.06-.26.05-.53.1-.78.14-.12.02-.24.04-.37.06h-.03c-1.47.23-2.96.36-4.46.4v19.25c0,1.43.08,2.86.24,4.25.15,1.38.39,2.77.71,4.15l1.94,8.55h-27.98l1.95-9c.26-1.2.46-2.44.6-3.68.14-1.29.22-2.61.22-3.92v-26.56c-9.19-6.77-14.66-17.57-14.66-28.98s5.47-22.21,14.66-28.98v-4.53c-.03-.42-.07-.86-.12-1.34-.16-1.41-.4-2.83-.71-4.23l-1.95-8.56h51.13l15.82,13.44h-30.66c-2.04,0-4.13.29-5.82.53-2.03.28-4.05.71-6,1.29-6.23,1.82-12.04,5.14-16.81,9.6l-.02.02c-.68.59-1.32,1.23-1.91,1.91,0,0-.67.72-1.79,2.34Z"/>
</svg>